<svg xmlns="http://www.w3.org/2000/svg" xmlns:xlink="http://www.w3.org/1999/xlink" width="1989.001" height="3983" viewBox="0 0 1989.001 3983">
  <defs>
    <filter id="Rectangle_1064" x="0" y="0" width="1989" height="3983" filterUnits="userSpaceOnUse">
      <feOffset dy="3" input="SourceAlpha"/>
      <feGaussianBlur stdDeviation="3" result="blur"/>
      <feFlood flood-opacity="0.161"/>
      <feComposite operator="in" in2="blur"/>
      <feComposite in="SourceGraphic"/>
    </filter>
    <filter id="Intersection_1" x="780.998" y="0.002" width="1208.003" height="3982.998" filterUnits="userSpaceOnUse">
      <feOffset dy="3" input="SourceAlpha"/>
      <feGaussianBlur stdDeviation="3" result="blur-2"/>
      <feFlood flood-opacity="0.161"/>
      <feComposite operator="in" in2="blur-2"/>
      <feComposite in="SourceGraphic"/>
    </filter>
  </defs>
  <g id="bg" transform="translate(9 6)">
    <g transform="matrix(1, 0, 0, 1, -9, -6)" filter="url(#Rectangle_1064)">
      <g id="Rectangle_1064-2" data-name="Rectangle 1064" transform="translate(9 6)" fill="#f2f2f2" stroke="#dcd6f7" stroke-width="1">
        <rect width="1971" height="3965" stroke="none"/>
        <rect x="0.5" y="0.5" width="1970" height="3964" fill="none"/>
      </g>
    </g>
    <g transform="matrix(1, 0, 0, 1, -9, -6)" filter="url(#Intersection_1)">
      <g id="Intersection_1-2" data-name="Intersection 1" transform="translate(3702 -24852)" fill="#fff">
        <path d="M -1722.49951171875 28822.5 L -2618.452392578125 28822.5 C -2629.91796875 28791.74609375 -2641.23095703125 28760.181640625 -2652.076416015625 28728.681640625 C -2662.9833984375 28697.00390625 -2673.718505859375 28664.515625 -2683.98388671875 28632.12109375 C -2694.2744140625 28599.6484375 -2704.3759765625 28566.37890625 -2714.007080078125 28533.232421875 C -2723.66552734375 28499.994140625 -2733.116455078125 28465.96875 -2742.098876953125 28432.1015625 C -2751.10888671875 28398.12890625 -2759.89453125 28363.376953125 -2768.2119140625 28328.81640625 C -2776.557861328125 28294.134765625 -2784.66259765625 28258.689453125 -2792.300537109375 28223.462890625 C -2799.966552734375 28188.10546875 -2807.3740234375 28151.994140625 -2814.31689453125 28116.130859375 C -2821.28759765625 28080.125 -2827.98193359375 28043.376953125 -2834.21435546875 28006.90625 C -2885.4990234375 27706.81640625 -2911.50244140625 27393.443359375 -2911.50244140625 27075.49609375 C -2911.50244140625 27021.44140625 -2910.738037109375 26966.7578125 -2909.23046875 26912.96484375 C -2907.73486328125 26859.59375 -2905.467041015625 26805.65234375 -2902.489990234375 26752.638671875 C -2899.535400390625 26700.0234375 -2895.802490234375 26646.896484375 -2891.39453125 26594.734375 C -2887.01806640625 26542.94140625 -2881.857421875 26490.697265625 -2876.056884765625 26439.45703125 C -2870.294921875 26388.556640625 -2863.745361328125 26337.271484375 -2856.591064453125 26287.021484375 C -2849.48046875 26237.0859375 -2841.580078125 26186.826171875 -2833.109375 26137.640625 C -2824.6875 26088.736328125 -2815.474365234375 26039.57421875 -2805.7265625 25991.5234375 C -2796.029052734375 25943.720703125 -2785.54150390625 25895.728515625 -2774.554443359375 25848.880859375 C -2763.618896484375 25802.25 -2751.89453125 25755.5 -2739.70751953125 25709.92578125 C -2727.570068359375 25664.5390625 -2714.6474609375 25619.099609375 -2701.298583984375 25574.869140625 C -2687.99658203125 25530.794921875 -2673.91357421875 25486.73828125 -2659.44091796875 25443.923828125 C -2645.010498046875 25401.232421875 -2629.805419921875 25358.630859375 -2614.248046875 25317.298828125 C -2598.72607421875 25276.0625 -2582.43701171875 25234.984375 -2565.83349609375 25195.20703125 C -2549.257080078125 25155.49609375 -2531.921875 25116.015625 -2514.310546875 25077.861328125 C -2496.716064453125 25039.744140625 -2478.37353515625 25001.931640625 -2459.79248046875 24965.470703125 C -2441.262939453125 24929.111328125 -2422.000244140625 24893.123046875 -2402.535888671875 24858.501953125 L -1722.49951171875 24858.501953125 L -1722.49951171875 28822.5 Z" stroke="none"/>
        <path d="M -1722.99951171875 28822 L -1722.99951171875 24859.001953125 L -2402.24365234375 24859.001953125 C -2421.655517578125 24893.5390625 -2440.86572265625 24929.431640625 -2459.346923828125 24965.697265625 C -2477.925537109375 25002.15234375 -2496.264892578125 25039.9609375 -2513.8564453125 25078.0703125 C -2531.465576171875 25116.21875 -2548.798095703125 25155.693359375 -2565.3720703125 25195.400390625 C -2581.973388671875 25235.171875 -2598.260498046875 25276.244140625 -2613.780029296875 25317.474609375 C -2629.33544921875 25358.80078125 -2644.53857421875 25401.3984375 -2658.967041015625 25444.083984375 C -2673.43798828125 25486.892578125 -2687.51904296875 25530.9453125 -2700.820068359375 25575.013671875 C -2714.16748046875 25619.23828125 -2727.08837890625 25664.671875 -2739.224365234375 25710.0546875 C -2751.410400390625 25755.623046875 -2763.133544921875 25802.369140625 -2774.06787109375 25848.994140625 C -2785.053466796875 25895.837890625 -2795.5400390625 25943.82421875 -2805.236572265625 25991.62109375 C -2814.9833984375 26039.669921875 -2824.195556640625 26088.826171875 -2832.616943359375 26137.724609375 C -2841.08642578125 26186.90625 -2848.986083984375 26237.16015625 -2856.095947265625 26287.091796875 C -2863.25 26337.3359375 -2869.798583984375 26388.619140625 -2875.56005859375 26439.513671875 C -2881.35986328125 26490.75 -2886.52001953125 26542.98828125 -2890.89599609375 26594.775390625 C -2895.303466796875 26646.93359375 -2899.036376953125 26700.056640625 -2901.990966796875 26752.66796875 C -2904.967529296875 26805.67578125 -2907.23486328125 26859.61328125 -2908.73046875 26912.978515625 C -2910.238037109375 26966.767578125 -2911.00244140625 27021.4453125 -2911.00244140625 27075.49609375 C -2911.00244140625 27393.4140625 -2885.00146484375 27706.759765625 -2833.721435546875 28006.822265625 C -2827.489990234375 28043.2890625 -2820.7958984375 28080.033203125 -2813.825927734375 28116.03515625 C -2806.884033203125 28151.89453125 -2799.4775390625 28188.00390625 -2791.81201171875 28223.357421875 C -2784.175048828125 28258.580078125 -2776.071044921875 28294.0234375 -2767.72607421875 28328.69921875 C -2759.409423828125 28363.2578125 -2750.62451171875 28398.00390625 -2741.615478515625 28431.97265625 C -2732.634521484375 28465.837890625 -2723.18408203125 28499.859375 -2713.52685546875 28533.09375 C -2703.896484375 28566.234375 -2693.79638671875 28599.501953125 -2683.507568359375 28631.970703125 C -2673.243408203125 28664.361328125 -2662.509521484375 28696.84375 -2651.603515625 28728.51953125 C -2640.79736328125 28759.90625 -2629.528076171875 28791.353515625 -2618.10498046875 28822 L -1722.99951171875 28822 M -1721.99951171875 28823 L -2618.799560546875 28823 C -2803.616455078125 28327.4375 -2912.00244140625 27725.041015625 -2912.00244140625 27075.49609375 C -2912.00244140625 26203.076171875 -2716.49755859375 25415.80078125 -2402.828369140625 24858.001953125 L -1721.99951171875 24858.001953125 L -1721.99951171875 28823 Z" stroke="none" fill="#dcd6f7"/>
      </g>
    </g>
  </g>
</svg>
